<svg xmlns="http://www.w3.org/2000/svg" xmlns:xlink="http://www.w3.org/1999/xlink" viewBox="0 0 713 587">
  <defs>
    <linearGradient id="a" x1="0" x2="1" y1="0" y2="0" gradientTransform="matrix(387 0 0 387 0 170)" gradientUnits="userSpaceOnUse" spreadMethod="pad">
      <stop offset="0" stop-color="#3f57af"/>
      <stop offset=".1" stop-color="#3f57af"/>
      <stop offset=".3" stop-color="#484da9"/>
      <stop offset=".4" stop-color="#484da9"/>
      <stop offset=".7" stop-color="#6049a8"/>
      <stop offset=".7" stop-color="#6049a8"/>
      <stop offset="1" stop-color="#6f47a7"/>
    </linearGradient>
    <linearGradient id="b" x1="0" x2="1" y1="0" y2="0" gradientTransform="matrix(387 0 0 387 326 497)" gradientUnits="userSpaceOnUse" spreadMethod="pad">
      <stop offset="0" stop-color="#3f57af"/>
      <stop offset=".1" stop-color="#3f57af"/>
      <stop offset=".3" stop-color="#484da9"/>
      <stop offset=".4" stop-color="#484da9"/>
      <stop offset=".7" stop-color="#6049a8"/>
      <stop offset=".7" stop-color="#6049a8"/>
      <stop offset="1" stop-color="#6f47a7"/>
    </linearGradient>
    <linearGradient id="d" x1="0" x2="1" y1="0" y2="0" gradientTransform="matrix(121 0 0 121 758 394)" gradientUnits="userSpaceOnUse" spreadMethod="pad">
      <stop offset="0" stop-color="#3f57af"/>
      <stop offset=".1" stop-color="#3f57af"/>
      <stop offset=".3" stop-color="#484da9"/>
      <stop offset=".4" stop-color="#484da9"/>
      <stop offset=".7" stop-color="#6049a8"/>
      <stop offset=".7" stop-color="#6049a8"/>
      <stop offset="1" stop-color="#6f47a7"/>
    </linearGradient>
    <linearGradient id="c" x1="0" x2="1" y1="0" y2="0" gradientTransform="matrix(147 0 0 147 639 402)" gradientUnits="userSpaceOnUse" spreadMethod="pad">
      <stop offset="0" stop-color="#3f57af"/>
      <stop offset=".1" stop-color="#3f57af"/>
      <stop offset=".3" stop-color="#484da9"/>
      <stop offset=".4" stop-color="#484da9"/>
      <stop offset=".7" stop-color="#6049a8"/>
      <stop offset=".7" stop-color="#6049a8"/>
      <stop offset="1" stop-color="#6f47a7"/>
    </linearGradient>
    <linearGradient id="e" x1="0" x2="1" y1="0" y2="0" gradientTransform="matrix(320 0 0 320 50 316)" gradientUnits="userSpaceOnUse" spreadMethod="pad">
      <stop offset="0" stop-color="#3f57af"/>
      <stop offset=".1" stop-color="#3f57af"/>
      <stop offset=".3" stop-color="#484da9"/>
      <stop offset=".4" stop-color="#484da9"/>
      <stop offset=".7" stop-color="#6049a8"/>
      <stop offset=".7" stop-color="#6049a8"/>
      <stop offset="1" stop-color="#6f47a7"/>
    </linearGradient>
  </defs>
  <path fill="url(#a)" d="M19 79Q1 81 0 98v144q1 18 19 19h349q18-1 19-19V98q-1-17-19-19z" style="mix-blend-mode:normal"/>
  <path fill="url(#b)" d="M345 408q-18 1-19 19v141c0 10 8 19 19 19h349c11 0 19-9 19-19V427q-1-18-19-19z" style="mix-blend-mode:normal"/>
  <path fill="#fff" stroke="#6f47a7" stroke-miterlimit="10" stroke-width="1.3" d="M679 567H319c-10 0-19-9-19-19V20c0-11 9-19 19-19h360q18 1 19 19v528c0 10-8 19-19 19" style="mix-blend-mode:normal"/>
  <path fill="url(#c)" d="M703 193c-1 6 3 24 6 30 2 5 7 12 14 11q2 7 1 14c-1 6-10 6-14 12-3 4-1 8-2 11l-9 9c-7 11-1 14 0 24 3 20-14 37-18 56q-4 17-4 35v15l-4 8c-8 17-19 39-20 58l-3 47q-3 44-11 88c0 3 7 5 9 5q8 2 12-4l6 1q-2 9 8 11 8 1 14-2 8-3 19-1c11 4 16 9 29 7 4 0 20-2 16-8 6-2 31 1 33-6 2-6-8-15-11-21-15-20-26-48-35-71-10-29-26-78-17-107l4-7v11c0 4 13-4 14-5 7-7 3-20 4-29q3-18 9-36c7-31 2-60 5-91l2-16q-3-12-9-22c-4-13 0-30-13-40q-6-4-14-4c-10 0-20 6-21 17m14-5c1-13 14-11 21-4 10 10 7 24 11 37 3 10 11 18 7 30l-3-5q-11-7-13-19c-1-1-2-9-1-10l4-6c3-6 1-14-7-9q-6-12-19-14m-1-7c-2 1-2 6-2 7l-5 3-3 3q1-10 10-13m-5 41q-3-7-3-13-3-6 0-13c5-9 16-6 21 1l6 8q2 1 3-1h3q1 5-1 8l-4 1c-3 4-1 9-8 14q-5 4-8 4-5-1-9-9m15 29q2-9-1-18c4-4 9-5 11-11l3 12 4 8q-3 0-9 4-5 5-8 5m-1 7c1-6 2-4 7-7 9-6 18-14 22 3 3 15 1 58 0 75-1 18-11 36-12 53-2 15 5 30-14 35q2-8 0-14c0-8 7-20 9-30 4-19 8-46 6-66l-5-35-1-2-1 1q0 8 2 15c-8-6-13-18-13-28m-46 143q-1-23 5-44c5-18 19-32 18-52 0-6-5-12-3-18 1-5 12-15 16-20l8-11q0 14 7 25c1 3 8 8 8 10l1 10c0 3-6 11-8 16-10 24 9 42 0 67l-6 18c-3 10-7 14-8 27-3 42 28 125 51 161l15 21q-2 5-8 5l-12 1h-12l-8-10c-20-32-29-76-34-113l23 72c7 15 16 34 31 41l9 3v-3q-6 0-10-4c-28-16-38-79-50-108-1-2-2-7-4-7-2 1-2 9-2 11 2 30 19 84 34 109l9 12 1 2c-1 3-19 4-22 4-10-1-19-9-28-9l-12 2c-7 2-16 4-19 0-2-3 1-16 1-21 1-31 0-69-4-100-1-3-2-12-4-12-3 0-3 5-4 7l-1 29v88l-2 3c-2 2-13 0-13-3q8-45 11-91c2-24 0-44 8-67q17-40 37-79l-1-2-1 1-16 31zm40-144-8 10q-1-8 8-10m11 74 2-10 8-14c4 18-3 36-4 55zm-71 279 2-119 2 5 3 28q4 44 0 86z" style="mix-blend-mode:normal" transform="translate(-205 -103)"/>
  <path fill="url(#d)" d="m805 166-8 7c-5 5-2 11-3 17l-1 8q1 6 4 10v10l-13 14c-14 12-21 7-24 29-6 39 0 81 12 117l-3 21c1 2 10 2 12 3l3 15 4 44-5 46c-2 28 5 57 7 85 3 3 0 5 0 9v11c0 2 7 4 8 5l3-1h2l6 3q14 7 30 5 7 1 7-7c-1-3-14-9-18-12l3-3c7 1 13 6 20 7 4 0 25 1 27-3 4-8-15-9-19-11-8-2-10-8-16-14h1q14-54 30-106l-14-80q3-9 3-19-5-12-11-20c-3-7-9-29-10-37-1-18 2-39 0-58-2-12-7-13-15-21-1-3-7-10-6-13q2 0 6-4c6-9 6-19 8-29q3-8 3-16c-2-9-13-15-23-15q-5 0-10 3m-8 24c-2-3 0-13 2-16l5-3 4-3c9-6 31 3 27 16l-2-3-8-1h-3c-4-1-14-5-16 0v6c-1 2-6 4-5 8zm8 1 3-4 1-6q8 0 15 2h2q3-2 6 1l1 7-2 14c0 3-6 17-8 19-5 3-17-5-19-10l-3-9h-3c-2-2-4-9-2-12 3-1 3 5 4 6h1c2 0 3-7 4-8m-5 30v-7l10 10 8 3c1 1-1 8-2 8zm11 21-15-20 18 16-2 5zm5 30-16-23 2-4c1-6-6-4-8-6l-3-9q0-2 3-5l13 16q16 26 22 56zm-7 127-5-7-1-7c-6-20-16-41-15-62 1-22 8-43 1-65-2-7-6-15-14-16l14-10 3 9 7 3-2 5q15 19 26 42l10 21 1 14q4 28-1 56-2 19-17 18zm10-166q5 5 0 10zm12 59-11-32c-3-7-9-12-4-20 3 2 1 10 4 12 4 1-1-5 3-6l7 27 2 21zm3 6-1-28-9-28 3 4 6 17q6 18 2 37zm-73 23c-1-16-1-58 5-71 7-15 17 0 20 9 8 23-1 42-1 65-1 9 3 23 5 32l10 30-21 8c-5-23-16-49-18-73m97 70-3-3c-7-9-20-57-19-69l3-26q1-23-8-45 6 3 7 11c4 19 0 43 2 63 1 7 6 27 9 34 5 11 12 13 11 28zm-35 11q4-1 7-5c8-8 8-33 9-45v-2c4 16 7 33 18 45l10 57 4 21q-2 14-8 27-12 39-21 79-12 0-23-7l6-23 7-37c2-9 10-28 9-35-2-13-10-29-14-42l4-17 5-13-1-2q-8 14-11 31-12 63-14 128 4 14 5 29-12 2-22 0l-1-1-6-60c-2-26 5-50 4-75l-3-36-3-17q1-1 2 1c2 7 0 17 7 21 7 5 26 11 17-4h4c2-2-4-14-4-18h6l4 1zm-51-4 2-12 4 11h2q2-1 2 2zm13-3 15-6 1 2-16 6zm9 27c-5-4-4-17-7-23l14-5q4 4 6 9l5 14q-4-1-3-6-1-5-3-6v8l3 13-1 1c-3 0-12-4-14-5m21 150-3-15c0-34 7-68 11-102l3-15q8 21 13 41c-10 22-12 45-17 69l-6 21 1 4q-2-1-2-3m2 7 1-3 8 2q6 3 9 2l-4 3h-3q-5 0-11-4m22 2q7 11 18 17l15 3q3 1 3 4-12 2-24 1c-5-1-20-9-23-7l-1 3-9-9-1-10q5 3 11 3 5 1 11-5m-31 16q4-4 7-3l12 13c3 3 15 9 16 11v2q-17 3-32-2-4-4-8-5h-3l-1 1-6-2v-16l5 3 3 1zm-11-2 9-1q-2 3-5 3-2 1-4-2" style="mix-blend-mode:normal" transform="translate(-205 -103)"/>
  <path fill="#fff" stroke="#6f47a7" stroke-miterlimit="10" stroke-width="1.3" d="M399 504H39q-18-1-19-19V122c0-10 8-19 19-19h360c10 0 19 9 19 19v363c0 11-9 19-19 19"/>
  <path fill="url(#e)" d="M86 181q6 6 7-2h22l-3 3-1 5-4 1-2 3-14 10-20 9c-4 2-5 15-6 20q-9 48-15 98l9 3c2 0 8 1 9-1l9-61v15l-3 16-5 36q-1 5 4 5c7 2 21 6 28 3l6-5c2 0 12-1 13 1l2 74 2 2q12 5 26 0l6-91 2 6h6l7 85 1 1 13 2 12-4 1-12 2-107c0-26-1-44-4-69l-1-7-6-1 5-1v-4c3 1 10 6 9 1q-1-7-8-9c-6-3-18-6-22-11q-3-6-10-9c-2-2 4-7 5-7h45v261h-37c-6 0-15 9-15 16v8q5 2 8 1 2-4 1-9 3-7 10-8h75c4 0 11 5 11 8v8q4 2 8 0v-10c0-5-9-14-15-14h-37V179h57l-3 3-1 5-4 2q-4 3-6 8l-10 5c-7 3-10 3-16 8q-6 4-3 9l8-3q3 11 1 23l-2 4c-1 4 5 22 6 28 1 10-4 22-6 32q-11 50-18 100c0 4 8 5 10 6l11 1 4 4c7 3 24 4 31 4 4 0 24-2 26-5 1-3-2-4 4-4 6-1 13 1 17-5l-13-78 15-2 16-9 5 7 3 7c2 1 12-1 13-2q2-4 0-8l2-3c4-15-4-40-7-56l-6-38c-1-7-1-10-8-14-10-7-17-7-25-17l-3-3-4-1c-3-2 3-7 5-8h22v4c11 2 12-16 2-16-4 0 0 4-4 4h-21q-1-2-6-3l-7 3h-25l-3-3c-6-2-7 3-10 3H167q-3-4-9-3l-4 3h-33c-4 0-4-3-8-3q-6 1-7 3H92v-4h-1c-7 0-10 10-5 14m259-11c6 2 6 9 0 11l-1-4h-23v-4h23q2-1 1-3m-258 9q-4-5 3-9v3h15v2h2l1-2h9v4H91l-1 4zm72-8h5zm120 0h-5q3-2 5 0m-170 0q4-2 6 0zm208 0h-6zm-45 2h1q8-2 8 4h-60l-1 1v264h39c4 0 13 8 13 12v9h-4q1-12-8-16h-83c-8 1-10 9-9 16h-5q-1-11 7-18l6-3h39l1-1V178l-1-1h-47l1-4h101l-1 2h2zm-115 0h8q2 2 1 4h-47v-4h35v2l1 1zm126 0h24v2h2l1-2h8l1 4h-36zm13 28-7-4-7-9q-6-1-4-4l4-5h35l-3 3-1 5-4 2-4 4-2 2zm-178-22h46l-2 3-2 4-4 3-7 8-11 5c-3 0-10-7-13-9l-4-2c-2-1-3-5-7-4-2-2 4-8 4-8m23 25 11-6c4-4 4-10 11-9q5 1 7 7c6 7 22 10 30 16l1 3-39-20c-3 0-14 8-19 9l-1 1zm167-11q4-7 11-3c1 1 7 8 4 9l-8-3c-2-1-7 3-8 3-3 0 0-5 1-6m-203 5c-2-1 3-11 10-9q5 3 6 7 0 4-5 1l-3-1zm148 7 14-7q3-8 10-9c5 0 5 4 8 7q7 6 16 9 1 3-1 2l-23-11-22 11h-2zm-149 10-3-7v-12l2-1q1 8 8 15l-6 6zm11-5 4-6 5-9c2 1 1 11 1 13l-4 8zm211-13 3 3c1 2-7 14-11 14q6-8 8-17m-23 0 2 7q-8-1-2-7m-157 9 16-7 30 14v5h-3v-4h-6v4h-25c0-7-7-8-12-11m-39-5 6-3 2 1 4 1-6 8c-2 0-5-6-6-7m146 9 23-12 12 6-9 5c-6 4-6 19-8 26-12-2-15-15-18-25m55-8 1-1c6-4 6-3 12 0v1zm-181 11v-15q8 6 9 16l-4 1zm-38 0q2-9 9-15l1 15-5 3zm240-7 2-4 16 8v1l-1 3zm-22-2h15l-5 7zm-168 16-4-2c-1-2 4-3 4-3l-3-11 16 8-2 17-4 41q0 11 2 21l-9 1q-3-18 0-37h-1l-2 20 1 18-4 1c0 2 0 10 3 11l13-2v1l5 34-10 3c-12 3-22 5-26-10-2-10-3-39-1-49l15-38c1-2 10-2 13-3v-6l-10 1c1-3 6-13 4-16m-61 71 2-9-3-49-4-21 17-8-3 10 5 3c-1 2-6 3-6 5 0 4 5 16 7 20 5 15 16 35 17 51 1 10 0 35-5 44-6 12-23 3-34 1l6-35c3 1 10 3 12 2 4 0 4-8 3-11l-3-1v-32l-2-6-1 2 2 16-1 19zm204-82 9-4 5 3-1 1-12 5zm1 28c15-2 17-19 20-31l5 2c1 1-2 14-2 17q-2 8 1 15l2 5-5 22-2 10-10 1c0-7 4-15 4-22v-2q-4 12-6 25-13 1-27-1l-4-22-2-2 4 24-9-1-2-11-5-21 2-7q2-9 0-18l-2-11q2-3 5-3c4 12 7 30 23 31zm35 31 6-7c1-3-2-8-1-11q3-1 6-7c0-6-7-20-10-26l9-9 3 2-2 8q2 0 2-2l2-6 1 1c-1 2-3 9-2 10h1l2-9c1-2 2 3 2 3v9l1 1v-12l7 3q-2 12-1 24l1 10-1 29q3 16 4 33c-6 1-11 7-17 9l-13 2zm-18-58-1 5c-3-2-4-8 1-5m10 3v-3c1 0 7 4 6 6zm-68-3 1 3-6 3q1-4 5-6m52 2 1-1 3 7c0 3-7 15-12 15l-2-17 8-3c1 0-1 7 1 8zm-20 23v-1c0-4 2-19 4-21l2-2c3 4-1 7-1 12l3-4q-1-1 1-1l1 16-8 2zm76-12c1-4-4-8 0-12l3 8 7 41c2 13 11 40 7 53q0 3-3 5l1-12q-1-1-1 1c-1 2-1 11-3 12h-5l-2-8q-2 2-1 5 3 3 1 4c-2 1-6-4-6-5q2 0 2-5c0-14-5-29-5-46v-25l2-21c2 0 1 5 3 5M110 326q3-27 1-56v-57q1-3 3-1l1 70-1 5q-2 26 4 50h-10zm-57 1 12-85 3-19q1-7 4-11l4 27c1 14 0 21-2 35l-8 55zm96-69c2-14 1-30 5-44q-1-1 1-1 12 56 18 114l-14 2zm-22-44 10 8v1l-18 49zm-39 8 11-8 8 58zm97 1v-9h2v9zm-69-8c2 1 4 6 6 3l2-3-8 56zm-7 0v55l-8-55 2 3 2 2zm200 1q2 0 1 2h-1zm-2 14q0-7 5-12l-4 14zm11-11 4 8c2 4 5 12 5 16q-1 4-5 5l-2-13q1-1-1-1l3 25-4 6-1-40 1 4 2 1zm-158 3-1-3h24v2h-11l-8 1zm153 88c-2-19 0-42 0-61l1-28 1-1v21l1 3 1 79h-2zm-124-85v-3h4v5l-13 1v-5h3l1 2zm-12-1 1-1 1 9h-2zm-17 0h15v5l-13 1q-2-2-2-6m149 16q-1-7 3-16l-1 20zm-120-10h5l3 23zm-8 0 6-1 6 17c3 9 5 12 5 23v6l-2 138-10 3-5-147h-2l5 147-12-2-6-83c0-1 9-1 9-4l-14-95 6-1h8l2 2h1q2 0 3-3m-47 8 10-1-1 3-10 1zm177 10-1 16c-6-2 0-12 1-16m-7 29 2-13c1-1 5 3 5 3v36zm-150 45-2-22-4-18v-12l8 46-1 9zm74 82v-2q8-61 23-123 25 5 51 0 13 47 20 95l4 30q-9 3-20 3l-8-82h-2l8 87q-28 8-55 0l9-87h-1l-10 83c-6-3-14 0-19-4m-92-101-1-8 13-1c0 1 2 6 1 7l-12 2zm-58-1c-4-1 0-6-1-8l14 1-2 8zm276 20 11-1v4l-11 2zm-216 24 1-2 15-3-7 73-12 2zm-14 68-1-71q7 3 13 2l-3 71z"/>
</svg>
