<?xml version="1.0" encoding="UTF-8" standalone="no"?>
<!-- Created with Inkscape (http://www.inkscape.org/) -->

<svg
   version="1.1"
   id="svg1"
   width="713.05603"
   height="586.86865"
   viewBox="0 0 713.05602 586.86865"
   xmlns="http://www.w3.org/2000/svg"
   xmlns:svg="http://www.w3.org/2000/svg"
   xmlns:rdf="http://www.w3.org/1999/02/22-rdf-syntax-ns#"
   xmlns:cc="http://creativecommons.org/ns#"
   xmlns:dc="http://purl.org/dc/elements/1.1/">
  <title
     id="title183">Anqio Visual Brand Identity</title>
  <defs
     id="defs1">
    <linearGradient
       x1="0"
       y1="0"
       x2="1"
       y2="0"
       gradientUnits="userSpaceOnUse"
       gradientTransform="matrix(387.24006,0,0,387.24006,-2e-5,170.25139)"
       spreadMethod="pad"
       id="linearGradient85">
      <stop
         style="stop-opacity:1;stop-color:#3f57af"
         offset="0"
         id="stop79" />
      <stop
         style="stop-opacity:1;stop-color:#3f57af"
         offset="0.06768357"
         id="stop80" />
      <stop
         style="stop-opacity:1;stop-color:#484da9"
         offset="0.315836"
         id="stop81" />
      <stop
         style="stop-opacity:1;stop-color:#484da9"
         offset="0.35555155"
         id="stop82" />
      <stop
         style="stop-opacity:1;stop-color:#6049a8"
         offset="0.660142"
         id="stop83" />
      <stop
         style="stop-opacity:1;stop-color:#6049a8"
         offset="0.66968481"
         id="stop84" />
      <stop
         style="stop-opacity:1;stop-color:#6f47a7"
         offset="1"
         id="stop85" />
    </linearGradient>
    <linearGradient
       x1="0"
       y1="0"
       x2="1"
       y2="0"
       gradientUnits="userSpaceOnUse"
       gradientTransform="matrix(387.24006,0,0,387.24006,325.81571,497.40248)"
       spreadMethod="pad"
       id="linearGradient92">
      <stop
         style="stop-opacity:1;stop-color:#3f57af"
         offset="0"
         id="stop86" />
      <stop
         style="stop-opacity:1;stop-color:#3f57af"
         offset="0.06768357"
         id="stop87" />
      <stop
         style="stop-opacity:1;stop-color:#484da9"
         offset="0.315836"
         id="stop88" />
      <stop
         style="stop-opacity:1;stop-color:#484da9"
         offset="0.35555155"
         id="stop89" />
      <stop
         style="stop-opacity:1;stop-color:#6049a8"
         offset="0.660142"
         id="stop90" />
      <stop
         style="stop-opacity:1;stop-color:#6049a8"
         offset="0.66968481"
         id="stop91" />
      <stop
         style="stop-opacity:1;stop-color:#6f47a7"
         offset="1"
         id="stop92" />
    </linearGradient>
    <linearGradient
       x1="0"
       y1="0"
       x2="1"
       y2="0"
       gradientUnits="userSpaceOnUse"
       gradientTransform="matrix(120.65098,0,0,120.65098,757.5648,393.86081)"
       spreadMethod="pad"
       id="linearGradient100">
      <stop
         style="stop-opacity:1;stop-color:#3f57af"
         offset="0"
         id="stop94" />
      <stop
         style="stop-opacity:1;stop-color:#3f57af"
         offset="0.06768357"
         id="stop95" />
      <stop
         style="stop-opacity:1;stop-color:#484da9"
         offset="0.315836"
         id="stop96" />
      <stop
         style="stop-opacity:1;stop-color:#484da9"
         offset="0.35555155"
         id="stop97" />
      <stop
         style="stop-opacity:1;stop-color:#6049a8"
         offset="0.660142"
         id="stop98" />
      <stop
         style="stop-opacity:1;stop-color:#6049a8"
         offset="0.66968481"
         id="stop99" />
      <stop
         style="stop-opacity:1;stop-color:#6f47a7"
         offset="1"
         id="stop100" />
    </linearGradient>
    <linearGradient
       x1="0"
       y1="0"
       x2="1"
       y2="0"
       gradientUnits="userSpaceOnUse"
       gradientTransform="matrix(146.8854,0,0,146.8854,638.6,402.24765)"
       spreadMethod="pad"
       id="linearGradient107">
      <stop
         style="stop-opacity:1;stop-color:#3f57af"
         offset="0"
         id="stop101" />
      <stop
         style="stop-opacity:1;stop-color:#3f57af"
         offset="0.06768357"
         id="stop102" />
      <stop
         style="stop-opacity:1;stop-color:#484da9"
         offset="0.315836"
         id="stop103" />
      <stop
         style="stop-opacity:1;stop-color:#484da9"
         offset="0.35555155"
         id="stop104" />
      <stop
         style="stop-opacity:1;stop-color:#6049a8"
         offset="0.660142"
         id="stop105" />
      <stop
         style="stop-opacity:1;stop-color:#6049a8"
         offset="0.66968481"
         id="stop106" />
      <stop
         style="stop-opacity:1;stop-color:#6f47a7"
         offset="1"
         id="stop107" />
    </linearGradient>
    <linearGradient
       x1="0"
       y1="0"
       x2="1"
       y2="0"
       gradientUnits="userSpaceOnUse"
       gradientTransform="matrix(319.70045,0,0,319.70045,50.36361,316.24239)"
       spreadMethod="pad"
       id="linearGradient114">
      <stop
         style="stop-opacity:1;stop-color:#3f57af"
         offset="0"
         id="stop108" />
      <stop
         style="stop-opacity:1;stop-color:#3f57af"
         offset="0.06768357"
         id="stop109" />
      <stop
         style="stop-opacity:1;stop-color:#484da9"
         offset="0.315836"
         id="stop110" />
      <stop
         style="stop-opacity:1;stop-color:#484da9"
         offset="0.35555155"
         id="stop111" />
      <stop
         style="stop-opacity:1;stop-color:#6049a8"
         offset="0.660142"
         id="stop112" />
      <stop
         style="stop-opacity:1;stop-color:#6049a8"
         offset="0.66968481"
         id="stop113" />
      <stop
         style="stop-opacity:1;stop-color:#6f47a7"
         offset="1"
         id="stop114" />
    </linearGradient>
  </defs>
  <path
     id="LeftTopFrameCorner"
     d="M 18.89734,79.450005 C 8.46134,79.450005 0,87.911335 0,98.347335 v 0 143.808005 c 0,10.436 8.46134,18.89733 18.89734,18.89733 v 0 h 349.44532 c 10.436,0 18.89734,-8.46133 18.89734,-18.89733 v 0 -143.808005 c 0,-10.436 -8.46134,-18.89733 -18.89734,-18.89733 v 0 z"
     style="mix-blend-mode:normal;fill:url(#linearGradient85);stroke:none;stroke-width:1.33333" />
  <path
     id="RightBottomFrameCorner"
     d="m 344.71331,407.93667 c -10.436,0 -18.8973,8.46133 -18.8973,18.89733 v 0 141.13733 c 0,10.436 8.4613,18.89733 18.8973,18.89733 v 0 h 349.444 c 10.4387,0 18.8987,-8.46133 18.8987,-18.89733 v 0 V 426.834 c 0,-10.436 -8.46,-18.89733 -18.8987,-18.89733 v 0 z"
     style="mix-blend-mode:normal;fill:url(#linearGradient92);stroke:none;stroke-width:1.33333" />
  <path
     id="RightScreen"
     d="m 679.46971,566.83866 h -360.1267 c -10.4373,0 -18.8986,-8.46133 -18.8986,-18.89733 V 19.564005 c 0,-10.436 8.4613,-18.89733998 18.8986,-18.89733998 h 360.1267 c 10.4373,0 18.8973,8.46133998 18.8973,18.89733998 V 547.94133 c 0,10.436 -8.46,18.89733 -18.8973,18.89733"
     style="mix-blend-mode:normal;fill:#ffffff;fill-opacity:1;fill-rule:nonzero;stroke:#6f47a7;stroke-width:1.33333;stroke-linecap:butt;stroke-linejoin:miter;stroke-miterlimit:10;stroke-dasharray:none;stroke-opacity:1" />
  <g
     id="Mannequins"
     transform="translate(-204.73199,-103.41667)">
    <path
       id="WomenModel"
       d="m 702.9373,192.72001 c -0.8453,6.36133 2.7333,24.12267 5.6533,29.972 v 0 c 2.6934,5.39467 6.9454,12.50533 13.928,11.252 v 0 c 1.14,4.56933 2.152,9.33867 1.4787,14.10933 v 0 c -0.892,6.32534 -10.2387,6.14267 -14.024,11.52267 v 0 c -2.9467,4.188 -0.984,8.428 -2.3667,11.49467 v 0 c -0.748,1.65733 -6.6493,6.97866 -8.256,9.256 v 0 c -7.5066,10.63866 -1.364,13.416 -0.204,23.3 v 0 c 2.4214,20.61733 -13.9453,37.07333 -18.544,56.45199 v 0 c -2.544,10.724 -3.6706,24.31067 -4.0413,35.35467 v 0 c -0.104,3.096 1.0013,12.92533 0.6347,14.43333 v 0 c -0.324,1.336 -3.476,6.044 -4.3787,8.08934 v 0 c -7.5746,17.18533 -18.492,39.20533 -20.3013,57.76933 v 0 c -1.4987,15.35466 -1.04,31.87466 -2.2067,47.40533 v 0 c -2.2053,29.35467 -6.12,58.72933 -11.7093,87.59466 v 0 c 0.01,3.18134 7.2093,5.14534 9.8867,5.42934 v 0 c 5.3893,0.57466 8.032,-0.13067 11.6493,-4.08134 v 0 l 5.5147,0.42934 c -1.3974,6.31466 2.5093,10.476 8.5626,11.50133 v 0 c 5.2827,0.896 9.4933,-0.47867 13.8507,-1.852 v 0 c 5.4413,-1.71333 11.1133,-3.428 19.3933,-0.72933 v 0 c 10.8173,3.52666 15.7493,8.12533 28.536,7.04 v 0 c 4.224,-0.36 19.592,-2.17334 15.788,-8.65467 v 0 c 5.9933,-1.792 31.2227,1.58533 33.4347,-5.61733 v 0 C 787.2506,607.568 777.2133,598.692 773.5133,593.34 v 0 c -14.1373,-20.456 -25.692,-48.224 -34.1547,-71.648 v 0 C 729.1173,493.35067 712.8666,443.92534 722.384,414.96801 v 0 l 3.1186,-6.732 v 10.57866 c 0,4.29734 13.196,-3.88266 14.5574,-5.148 v 0 c 7.4053,-6.88 3.004,-19.48133 3.7853,-28.31733 v 0 c 0.988,-11.17733 6.492,-24.88533 9.04,-36.196 v 0 c 7.0213,-31.144 2.1827,-60.01733 4.7093,-90.86266 v 0 c 0.4707,-5.744 2.7614,-10.49334 2.2067,-16.75067 v 0 c -0.6893,-7.768 -6.184,-14.33067 -8.3907,-21.51867 v 0 c -4.1293,-13.44933 -0.572,-29.87733 -13.48,-39.78399 v 0 c -3.86,-2.96267 -8.6773,-4.36667 -13.4986,-4.36667 v 0 c -10.028,0.001 -20.064,6.07733 -21.4947,16.84933 M 716.7,187.91335 c 1,-12.87734 14.524,-10.98134 21.5533,-3.66134 v 0 c 9.804,10.20933 6.8307,24.188 10.348,36.34667 v 0 c 3.0027,10.37733 11.8587,18.61466 7.5107,30.78133 v 0 l -3.2614,-5.84533 c -6.6746,-5.424 -11.624,-9.07734 -13.1893,-18.188 v 0 c -0.26,-1.50267 -1.236,-9.67467 -1.1013,-10.59734 v 0 c 0.2546,-1.736 3.5733,-2.68133 4.7853,-5.49066 v 0 c 2.84,-6.59334 0.4773,-14.03734 -7.608,-9.51467 v 0 C 732.5186,193.89068 725.204,188.59735 716.7,187.91335 m -0.7267,-7.28534 c -1.6413,1.48 -1.6613,6.15467 -2.352,7.124 v 0 c -0.1627,0.23067 -3.8507,1.896 -4.9067,2.75867 v 0 c -1.2653,1.036 -1.552,2.596 -2.9533,3.24133 v 0 c 0.4293,-5.58933 4.884,-11.536 10.212,-13.124 m -4.9773,41.07867 c -2.7574,-5.44267 -2.3054,-7.4 -3.1254,-12.92667 v 0 c -0.7173,-4.83067 -2.7666,-7.396 -0.072,-12.62 v 0 c 4.7574,-9.228 15.964,-5.77466 21.6947,0.49467 v 0 c 1.6693,1.82533 4.324,7.71733 5.4653,8.43466 v 0 c 1.1627,0.73067 2.3107,0.007 3.344,-0.71466 v 0 c 1.144,-0.80134 2.148,-1.60134 2.8747,-0.43067 v 0 c 1.0013,1.612 0.035,6.66667 -1.2933,7.86267 v 0 c -0.9254,0.836 -2.8547,0.512 -3.8254,1.65733 v 0 c -2.7666,3.26267 -1.34,8.72667 -8.0413,13.84533 v 0 c -3.2427,2.47734 -5.776,3.592 -7.8973,3.592 v 0 c -3.78,0 -6.2574,-3.53466 -9.124,-9.19466 m 15.2,28.944 c 1.8306,-6.02934 0.132,-11.956 -1.3467,-17.8 v 0 c 3.728,-3.41467 9.356,-5.26934 10.8427,-10.64134 v 0 l 3.072,11.86934 4.2173,7.81866 c -1.5107,-0.54533 -5.36,1.92134 -9.004,4.38667 v 0 c -3.296,2.23067 -6.4227,4.46267 -7.4933,4.46267 v 0 c -0.1254,-0.001 -0.2227,-0.0307 -0.288,-0.096 m -0.72,7.67866 c 0.3453,-6.2 1.9106,-4.43466 6.0493,-7.088 v 0 c 9.024,-5.78933 18.5053,-13.936 22.2213,2.88267 v 0 c 3.3534,15.184 1.4307,57.972 0.1747,74.94666 v 0 c -1.3227,17.89867 -10.6013,36.35867 -12.3107,53.35467 v 0 c -1.472,14.64533 5.524,29.82933 -13.9546,34.56 v 0 c 1.9626,-4.76667 -0.1054,-9.71467 -0.065,-14.216 v 0 c 0.075,-8.25467 7.2587,-19.868 9.3227,-29.416 v 0 c 4.236,-19.58933 7.76,-46.35866 6.0613,-66.152 v 0 c -1.0186,-11.87866 -3.2173,-23.72933 -4.5493,-35.57733 v 0 l -1.648,-1.98533 c -0.68,0.53466 -1.028,0.90533 -1.14,1.81466 v 0 c -0.432,3.484 2.324,10.97067 2.228,14.94934 v 0 c -7.7,-6.296 -12.9493,-18.04934 -12.3893,-28.07334 m -46,142.25333 c -0.4974,-13.628 0.9893,-30.30666 4.7466,-43.41333 v 0 c 5.2187,-18.21333 19.1107,-31.69733 17.8694,-52.15066 v 0 c -0.3774,-6.22134 -4.7667,-11.78267 -3.3187,-17.93867 v 0 c 1.2307,-5.24133 12.2093,-14.90267 16.116,-19.63333 v 0 c 2.916,-3.532 5.2107,-7.63867 8.3773,-10.95467 v 0 c -0.732,8.904 1.3227,17.328 6.2734,24.74267 v 0 c 1.8173,2.72266 8.0613,8.136 8.688,9.55466 v 0 c 0.4333,0.98267 1.2533,8.47467 1.172,9.86534 v 0 c -0.2094,3.632 -6.3427,11.63066 -8.224,15.89733 v 0 c -10.6147,24.07066 9.1026,42.84133 -0.047,67.06933 v 0 c -2.8547,7.55867 -3.7613,11.43467 -5.992,18.81733 v 0 c -2.9947,9.908 -7.6107,13.90267 -8.464,26.55867 v 0 c -2.812,41.73466 28.4973,124.85333 51.112,160.54266 v 0 c 4.792,7.56533 10.9453,14.15067 15.3333,21.888 v 0 c -0.065,2.83467 -5.4786,4.37733 -7.7346,4.644 v 0 c -3.9214,0.46533 -8.3094,0.45467 -12.7147,0.444 v 0 c -4.112,-0.012 -8.2387,-0.0213 -12.0093,0.35467 v 0 c -2.04,-0.39734 -6.608,-8.02667 -7.9867,-10.25734 v 0 C 722.856,574.516 713.7866,531.32134 708.6813,494.324 v 0 l 23.7267,71.48134 c 6.184,15.16 15.2453,34.06133 30.7373,41.50399 v 0 c 2.8,1.34534 5.8693,2.64267 9.0373,2.27467 v 0 l -0.496,-2.196 c -3.2866,-0.64933 -6.896,-2.28267 -9.752,-3.976 v 0 c -28.312,-16.796 -38.028,-78.94133 -49.7973,-108.54 v 0 c -0.7787,-1.956 -1.968,-6.84666 -4.5507,-6.38 v 0 c -1.68,0.716 -1.2386,8.688 -1.1333,10.60134 v 0 c 1.6547,29.836 18.1467,83.548 34.036,108.97466 v 0 c 2.0507,3.28 7.56,9.28267 8.6773,11.75867 v 0 c 0.3654,0.80533 0.6414,1.56133 0.3374,2.44933 v 0 c -0.8867,2.59067 -18.4027,3.64933 -21.512,3.388 v 0 c -9.8347,-0.82933 -18.624,-8.17733 -27.7267,-8.78267 v 0 C 697.3733,616.69067 693,617.92 688.392,619.15067 v 0 c -7.6547,2.04266 -15.9574,4.08533 -19.192,-0.388 v 0 c -2.1547,-2.97867 0.588,-16.15467 0.7786,-20.48934 v 0 c 1.3774,-31.22266 0.136,-69.53866 -4.4759,-100.56533 v 0 c -0.3427,-2.30266 -1.376,-12.17733 -3.9134,-12.17733 v 0 c -2.4613,0 -2.9826,5.88533 -3.188,7.79067 v 0 c -0.9853,9.16133 -1.312,19.164 -1.584,28.32666 v 0 c -0.868,29.36534 0.3934,58.95734 0.4147,88.32 v 0 c -0.079,0.636 -1.3453,2.49867 -1.8947,2.852 v 0 c -2.7,1.73733 -13.4973,0.28533 -13.836,-2.86267 v 0 c 5.712,-29.84133 9.484,-60.14133 11.688,-90.47466 v 0 c 1.7547,-24.16 -0.144,-44.428 8.2214,-67.65466 v 0 c 9.7879,-27.172 24.4093,-53.144 36.9399,-79.10134 v 0 l -1.0013,-1.69466 -1.7093,1.19733 -15.4427,30.89333 c -0.057,0.008 -0.1107,0.012 -0.16,0.012 v 0 c -1.0573,0 -0.5307,-1.71066 -0.5613,-2.552 m 39.4173,-143.35466 -8.0213,9.47733 c -0.7414,-4.88 3.5773,-8.556 8.0213,-9.47733 m 10.8907,74.048 2.6266,-10.572 7.6454,-13.87067 c 3.728,18.39067 -2.7454,36.33467 -3.6507,54.708 v 0 z M 659.0373,609.58 661.2347,491.40667 c 1.0333,0.44133 1.18,3.684 1.3506,4.84 v 0 c 1.3,8.74267 2.2974,18.792 3.016,27.62667 v 0 c 2.336,28.71866 3.1053,57.696 0.7294,86.44133 v 0 z"
       style="mix-blend-mode:normal;fill:url(#linearGradient107);stroke:none;stroke-width:1.33333" />
    <path
       id="MaleModel"
       d="m 805.3973,166.03335 c -1.4013,1.00933 -7.9533,6.27333 -8.788,7.26666 v 0 c -4.2933,5.11467 -1.7,10.844 -2.492,16.47734 v 0 c -0.4533,3.21866 -1.972,4.13333 -1.496,8.72133 v 0 c 0.48,4.62133 3.8293,6.73866 4.344,9.51333 v 0 c 0.3387,1.82533 0.2907,8.13333 -0.364,9.78267 v 0 c -4.6507,4.128 -7.6667,10.82133 -12.3773,14.62266 v 0 c -13.8974,11.21067 -20.996,6.46267 -24.3547,28.91467 v 0 c -5.7667,38.55333 -0.312,80.22933 11.9,116.87733 v 0 l -2.5707,20.81067 c 0.3067,1.56266 9.7987,2.268 11.644,2.74666 v 0 c 0.696,4.98934 2.368,9.86667 3.0054,14.86934 v 0 c 1.6933,13.29066 3.1853,31.12666 3.6546,44.49866 v 0 c 0.5507,15.73467 -3.4466,30.632 -4.3653,45.96 v 0 c -1.6587,27.66933 4.86,56.96933 6.5787,84.59867 v 0 c 3.2693,3.55866 0.436,5.16133 -0.01,9.51333 v 0 c -0.2107,2.07466 -0.3707,9.12666 0.132,10.79466 v 0 c 0.4866,1.62134 6.8333,4.49734 8.4453,4.756 v 0 c 1.264,0.204 2.1947,-0.184 2.9613,-0.57333 v 0 c 0.7014,-0.35333 1.2654,-0.708 1.824,-0.61467 v 0 c 1.0734,0.18 4.0227,3.064 5.5827,3.89067 v 0 c 8.7307,4.63333 20.5373,5.67467 30.3093,4.71067 v 0 c 4.4494,-0.44 8.4107,-1.404 6.7907,-6.77467 v 0 c -1.0813,-3.58533 -13.9053,-9.88133 -17.3667,-12.2 v 0 l 2.6694,-3.56133 c 7.0733,0.94533 12.5666,6.316 19.6733,7.14533 v 0 c 4.3693,0.50933 25.0493,0.91467 26.9587,-2.836 v 0 c 3.888,-7.632 -14.8814,-9.432 -18.644,-10.58133 v 0 C 851.158,592.956 848.814,586.576 842.9873,581.49734 v 0 l 1.192,-0.58 c 8.2053,-35.74667 19.384,-70.71467 29.3813,-105.84934 v 0 l -13.412,-79.89999 c 1.584,-5.67334 3.2107,-13.27734 2.3534,-19.20667 v 0 c -1.1174,-7.71733 -7.6707,-13.48533 -10.596,-20.04933 v 0 c -3.1454,-7.056 -8.8414,-29.40667 -9.5587,-37.13867 v 0 c -1.6773,-18.09866 1.748,-38.28666 -0.832,-57.53066 v 0 c -1.676,-12.49867 -6.4373,-13.03067 -14.9227,-20.83334 v 0 c -0.4533,-3.60266 -7.0173,-10.13866 -5.1573,-13.11466 v 0 c 0.548,-0.87734 3.764,-1.768 5.6307,-4.58534 v 0 c 6.0826,-9.18 6.3026,-18.93333 8.0906,-29.11999 v 0 c 1.0147,-5.78134 3.7174,-9.3 2.5414,-16.07867 v 0 c -1.468,-8.468 -12.6027,-14.288 -22.3067,-14.288 v 0 c -3.7627,0 -7.312,0.876 -9.996,2.81067 m -8.3253,23.632 c -2.0134,-3.15867 -0.5387,-12.44667 2.1013,-15.26134 v 0 c 1.4373,-1.53333 3.6173,-1.76533 5.1027,-2.92533 v 0 c 1.3453,-1.05067 1.712,-2.52933 3.5586,-3.73867 v 0 c 9.5494,-6.24 30.7227,3.09067 27.1147,16.524 v 0 c -1.244,-0.0547 -0.968,-1.92533 -1.8387,-2.89333 v 0 c -1.5533,-1.732 -4.8586,-1.62933 -7.8626,-1.524 v 0 c -1.3667,0.0467 -2.6707,0.0933 -3.7187,-0.0333 v 0 c -3.8067,-0.45734 -13.232,-4.84134 -15.3907,0.0933 v 0 c -0.8693,1.98933 0.025,4.12667 -0.5253,6.03867 v 0 c -0.5147,1.78533 -5.1587,4.22933 -4.2427,7.80133 v 0 z m 7.78,1.34133 c 0.7693,-1.516 3.1146,-2.08267 3.6306,-4.36267 v 0 c 0.452,-1.996 0.1227,-4.02266 0.1907,-6.028 v 0 c 5.064,-0.816 10.1213,2.164 14.976,2.25467 v 0 c 0.792,0.0147 1.6453,-0.156 2.4973,-0.32533 v 0 c 2.1707,-0.43334 4.3347,-0.86667 5.5014,1.74666 v 0 c 0.4693,1.048 1.1506,5.58134 1.1453,6.872 v 0 c -0.011,2.768 -1.1067,10.80133 -1.6733,13.70933 v 0 c -0.604,3.108 -6.0707,17.30534 -8.2787,18.716 v 0 c -5.0147,3.204 -16.62,-4.76533 -19.1627,-9.156 v 0 c -1.5053,-2.59466 -1.416,-7.90133 -2.6466,-9.036 v 0 c -0.9867,-0.90933 -2.3307,-0.42533 -3.108,-0.896 v 0 c -2.1374,-1.288 -3.7627,-8.95066 -2.3787,-11.47999 v 0 c 3.444,-1.27067 3.5413,5.23333 4.4147,5.80533 v 0 c 0.3453,0.22533 0.664,0.328 0.96,0.328 v 0 c 2.4293,0 3.28,-6.86267 3.932,-8.148 m -5.3014,29.748 0.3774,-6.57067 9.9813,9.344 7.956,3.736 c 0.6773,0.90667 -0.564,8.00667 -1.5187,8.05333 v 0 z m 11.108,21.684 -14.3853,-20.23067 17.9173,15.336 -1.8733,5.81333 z m 5.6227,29.436 -16.28,-22.468 c -0.424,-1.62667 1.62,-2.824 1.9747,-4.37734 v 0 c 1.38,-6.04133 -6.304,-3.61066 -7.9587,-5.79066 v 0 c -0.2853,-0.376 -3.392,-8.29734 -3.4333,-8.76667 v 0 c -0.1294,-1.484 2.212,-4.13067 3.1586,-5.348 v 0 c 1.6827,-0.40667 11.5467,13.78 13.048,16.10933 v 0 c 10.8587,16.836 18.488,35.70267 22.3187,55.37867 v 0 z m -7.12,127.48933 c -1.8627,-2.27734 -4.632,-4.77867 -5.5547,-7.58134 v 0 c -0.7826,-2.37866 -0.4706,-4.78666 -1.0973,-6.92666 v 0 c -5.6987,-19.46 -15.96,-40.724 -14.992,-61.60533 v 0 c 1.032,-22.312 8.6293,-43.01467 1.24,-65.452 v 0 c -2.1133,-6.41334 -6.1667,-15.072 -13.6573,-15.90534 v 0 l 13.8586,-9.47466 c 0.8067,2.14933 1.952,7.18533 3.312,8.73733 v 0 c 1.6534,1.884 5.196,1.392 6.9014,3.29467 v 0 l -2.5307,4.748 c 10.436,13.244 19.0973,26.152 26.532,41.32 v 0 c 2.248,4.584 9.172,18.00533 10.1253,21.97466 v 0 c 0.756,3.156 -0.2266,9.68667 0.2054,13.66134 v 0 c 2.088,19.17999 3.7173,36.58399 -0.2227,55.96666 v 0 c -2.6867,13.21733 -6.2533,17.65067 -17.3387,17.65067 v 0 c -2.0013,0 -4.2506,-0.14534 -6.7813,-0.408 m 9.8133,-166.21733 c 3.8387,2.96933 3.0334,6.93866 0,10.21333 v 0 z m 11.82,58.51733 c -3.6186,-11.148 -5.548,-20.772 -10.5413,-31.78533 v 0 c -3.096,-6.83334 -9.3467,-11.61067 -4.2667,-19.43467 v 0 c 2.5627,1.69867 1.316,9.58 3.6174,11.33067 v 0 c 4.0773,0.93866 -0.4707,-4.312 2.936,-5.49467 v 0 c 2.3946,8.97867 6.3693,17.56267 7.8346,26.828 v 0 c 1.0854,6.856 0.6294,13.74667 1.6547,20.58667 v 0 c -0.059,0.009 -0.1133,0.0147 -0.1653,0.0147 v 0 c -0.88,0 -0.8347,-1.32266 -1.0694,-2.04533 m 3.432,6.05467 c -0.388,-9.41734 0.057,-18.06934 -1.6746,-27.51467 v 0 c -1.7827,-9.71733 -6.368,-18.70667 -8.5374,-28.30267 v 0 c 1.228,0.87067 2.8254,2.88667 3.444,4.21067 v 0 c 1.896,4.05733 4.4507,12.44133 5.6707,16.94667 v 0 c 3.4333,12.66933 3.5413,24.19466 1.82,37.20133 v 0 c -0.056,0.008 -0.1093,0.0107 -0.1587,0.0107 v 0 c -1.0653,0 -0.5293,-1.704 -0.564,-2.552 m -73.0306,23.372 c -0.8814,-15.83067 -1.6734,-58.02667 4.612,-71.332 v 0 c 6.9493,-14.71467 17.464,-0.036 20.4493,9.08 v 0 c 7.48,22.84666 -0.816,42.57866 -1.6573,65.14 v 0 c -0.3347,8.96399 2.9426,23.00399 5.3066,31.88799 v 0 c 2.7547,10.356 7.1867,20.144 10.0134,30.46534 v 0 l -20.4307,8.04266 C 773.93,370.83208 762.542,345.31341 761.194,321.09075 m 96.7533,70.35199 c -0.9627,-0.976 -2.032,-1.856 -2.8707,-2.952 v 0 C 847.806,378.96808 835.47,331.08941 835.646,318.84541 v 0 c 0.1133,-7.92133 2.5266,-17.40133 2.952,-25.51866 v 0 c 0.8533,-16.312 -1.232,-30.72934 -8.016,-45.58934 v 0 c 4.6453,2.876 6.7746,5.27334 7.836,10.76534 v 0 c 3.836,19.844 -0.1734,43.24266 1.7413,63.188 v 0 c 0.7013,7.31733 6.0213,27.28533 8.8293,34.21866 v 0 c 4.6307,11.43333 11.86,12.644 10.7774,27.87867 v 0 c -0.091,1.27466 -0.8734,7.65466 -1.8134,7.65466 v 0 c 0,0 0,0 -0.01,0 m -35.0373,10.956 c 1.7853,-0.36266 6.004,-3.58533 7.304,-5.1 v 0 c 7.3426,-8.55866 7.952,-33.54933 8.3866,-44.88266 v 0 c 0.035,-0.88534 -0.5426,-2.712 0.7267,-2.54 v 0 c 3.316,15.64533 6.5453,33.17333 18.0827,45.036 v 0 c 3.072,19.07866 6.0213,38.17733 9.1453,57.248 v 0 c 1.0587,6.46133 3.5907,14.54533 4.0773,20.72799 v 0 c 0.692,8.78 -4.8173,19.07867 -7.4186,27.42534 v 0 c -8.0627,25.884 -15.1214,52.14 -20.964,78.63733 v 0 c -7.852,-1.332 -16.1134,-2.32267 -23.032,-6.572 v 0 c -0.636,-1.01067 4.6226,-20.068 5.292,-23.20267 v 0 c 2.6306,-12.32933 4.1026,-25.40933 7.0093,-37.49733 v 0 c 2.0187,-8.40133 10.852,-27.53733 9.8293,-34.328 v 0 c -2.0186,-13.392 -10.5506,-29.388 -14.3946,-42.572 v 0 c 0.9653,-5.67866 2.42,-11.40666 4.1586,-16.88666 v 0 c 0.924,-2.912 4.8547,-10.72 4.9854,-12.528 v 0 c 0.088,-1.192 -0.8547,-1.50267 -1.508,-2.22 v 0 c -5.3707,9.10666 -8.1947,20.096 -10.372,30.47333 v 0 c -8.6094,41.04666 -13.6227,86.27733 -14.076,128.17866 v 0 c 2.4053,9.43867 4.1973,19.03467 4.364,28.81334 v 0 c -7.0947,0.37733 -14.3214,2.65333 -21.3747,0.75866 v 0 l -0.648,-1.01466 c -1.9493,-20.18934 -4.9787,-40.424 -6.4307,-60.656 v 0 c -1.8386,-25.656 4.86,-49.30667 3.6747,-75.16667 v 0 c -0.5053,-11.00933 -1.672,-24.73866 -2.956,-35.71066 v 0 c -0.676,-5.776 -2.368,-11.364 -2.9093,-17.14667 v 0 c 1.6133,-0.276 1.4586,0.124 1.82,1.42267 v 0 c 1.8906,6.78666 0.756,16.43866 7.4226,21.068 v 0 c 6.5174,4.52666 25.7934,10.66666 17.0307,-4.248 v 0 l 3.696,-0.324 c 2.6213,-1.80934 -3.36,-14.06534 -3.696,-17.19334 v 0 c 1.7853,-0.24533 3.9613,-0.0973 6.132,0.0493 v 0 c 1.324,0.0893 2.6467,0.18 3.8747,0.18 v 0 c 1.0013,0 1.9413,-0.06 2.768,-0.22934 m -50.7347,-4.37866 1.472,-12.39467 3.9867,10.96133 c 0.7346,0.76667 1.704,0.62 2.5746,0.47334 v 0 c 1.1827,-0.19867 2.1867,-0.39734 2.1854,1.688 v 0 z m 12.8667,-2.968 c 0.6186,-0.5 14.2466,-6.30134 14.8493,-5.78 v 0 l 0.7533,2.164 -16.0533,5.852 c 0.057,-0.85867 -0.3853,-1.56267 0.4507,-2.236 m 9.0626,26.65333 c -4.9093,-4.04267 -4.5613,-16.504 -6.604,-22.216 v 0 l 13.86,-5.844 c 1.412,3.384 4.4454,5.54133 5.9947,8.98 v 0 c 0.6813,1.51333 4.7,13.77867 4.2333,14.36533 v 0 c -2.1093,0.0493 -2.672,-2.89866 -3.0813,-5.848 v 0 c -0.4267,-3.088 -0.688,-6.176 -2.376,-5.82133 v 0 c -1.7093,0.35867 -0.3733,6.09333 -0.1613,7.44267 v 0 c 0.756,4.83333 2.652,8.99066 3.4346,13.70666 v 0 c -0.1866,0.18534 -0.552,0.268 -1.048,0.268 v 0 c -3.3506,0 -12.7053,-3.76133 -14.252,-5.03333 m 21.1067,150.34666 c -0.9893,-3.50133 -2.8613,-11.28533 -2.9107,-14.66533 v 0 c -0.5066,-34.70667 6.5414,-68.45333 11.096,-102.704 v 0 l 2.7894,-14.34133 c 4.7573,13.21067 10.0106,26.37066 12.752,40.22266 v 0 c -9.8267,22.39334 -12.2827,45.77067 -17.3494,69.34 v 0 c -1.296,6.028 -4.948,15.50267 -5.4986,20.85867 v 0 c -0.16,1.56267 0.5306,2.38533 0.6093,3.80667 v 0 c -1.4013,-0.25334 -1.208,-1.52134 -1.488,-2.51734 m 1.5,7.268 1.54,-3.204 c 0.608,-0.436 4.0013,0.86 7.628,2.15467 v 0 c 3.652,1.30533 7.5453,2.60933 9.072,2.14267 v 0 c -0.4187,1.03066 -3.2547,2.55066 -4.1613,2.75733 v 0 c -0.9774,0.22533 -1.9,0.32533 -2.78,0.32533 v 0 c -4.1787,0 -7.428,-2.25733 -11.2987,-4.176 m 22.268,1.98934 c 6.1773,5.37466 10.3467,13.58266 18.4373,16.40666 v 0 c 4.492,1.568 9.9707,1.43067 14.208,3.308 v 0 c 1.7134,0.76 4.0014,1.92133 3.48,4.184 v 0 c -8.2866,0.94667 -16.016,2.18667 -24.3653,0.64 v 0 c -4.8467,-0.896 -19.4853,-8.90533 -22.3907,-6.872 v 0 c -0.804,0.56267 -0.6186,2.66533 -1.788,3.30133 v 0 c -0.6453,0.004 -8.3293,-8.464 -8.7346,-9.49466 v 0 c -0.3694,-0.936 -1.4134,-9.772 -1.1134,-10.188 v 0 c 3.848,2.31467 7.4187,3.56667 10.8894,3.56667 v 0 c 3.8386,0 7.5546,-1.532 11.3773,-4.852 m -30.5667,15.49466 c 2.4387,-1.82533 4.5107,-3.65066 6.3054,-3.16666 v 0 c 1.0453,0.28266 9.9506,11.60799 12.588,13.74666 v 0 c 3.0893,2.50533 14.632,8.15467 15.5346,10.75333 v 0 c 0.252,0.72667 0.2947,1.58667 0.077,2.32934 v 0 c -9.8387,1.57733 -22.7734,1.95066 -31.812,-2.728 v 0 c -2.468,-1.276 -5.6374,-4.692 -8.0974,-5.124 v 0 c -1.2493,-0.21867 -1.9786,0.17333 -2.592,0.56666 v 0 c -0.4933,0.316 -0.9106,0.63334 -1.4626,0.62934 v 0 c -1.4414,-0.008 -4.1547,-1.85067 -5.904,-1.952 v 0 l 0.3013,-15.4 c 1.9373,-0.0667 2.5293,1.936 4.1747,2.74533 v 0 c 1.2093,0.596 2.3613,0.844 3.46,0.844 v 0 c 2.804,0 5.26,-1.62267 7.4266,-3.244 m -11.4106,-1.45067 9.484,-1.07866 c -1.004,1.96533 -3.044,2.976 -5.1014,2.976 v 0 c -1.616,-0.001 -3.2413,-0.624 -4.3826,-1.89734"
       style="mix-blend-mode:normal;fill:url(#linearGradient100);stroke:none;stroke-width:1.33333" />
  </g>
  <path
     id="LeftScreen"
     d="M 399.05451,504.07306 H 38.92781 c -10.4373,0 -18.8986,-8.46133 -18.8986,-18.89733 V 122.37707 c 0,-10.436 8.4613,-18.89733 18.8986,-18.89733 h 360.1267 c 10.4373,0 18.8973,8.46133 18.8973,18.89733 v 362.79866 c 0,10.436 -8.46,18.89733 -18.8973,18.89733"
     style="display:inline;fill:#ffffff;fill-opacity:1;fill-rule:nonzero;stroke:#6f47a7;stroke-width:1.33333;stroke-linecap:butt;stroke-linejoin:miter;stroke-miterlimit:10;stroke-dasharray:none;stroke-opacity:1" />
  <path
     id="GarmentsHolder"
     d="m 86.41731,181.43267 c 3.0774,2.552 6.9134,3.088 6.3334,-2.02666 v 0 h 22.3826 c -0.7333,1.22133 -2.3506,1.35866 -3.0106,3.012 v 0 c -0.5414,1.35466 -0.1374,3.42933 -1,4.16533 v 0 c -0.584,0.496 -2.7694,0.89733 -3.984,1.752 v 0 c -1.3267,0.932 -1.824,2.412 -2.496,2.94933 v 0 c -2.848,2.27067 -10.0574,7.48 -13.216,9.45467 v 0 c -5.9307,3.704 -14.6387,5.704 -20.116,9.148 v 0 c -3.896,2.45067 -5.5614,15.16133 -6.5027,19.88666 v 0 c -6.4227,32.288 -9.6853,65.23334 -14.444,97.79734 v 0 c 0.404,1.71733 7.1,2.94 8.872,3.20133 v 0 c 1.7467,0.256 7.976,1.21333 8.8373,-0.368 v 0 l 9.176,-60.944 c 0.416,4.74533 0.5427,9.29067 0,14.044 v 0 c -0.5987,5.216 -3.1467,11.976 -3.4013,16.728 v 0 c -0.664,12.37467 -3.704,23.66 -4.552,35.548 v 0 c -0.3067,4.29467 0.013,4.012 3.8173,5.21333 v 0 c 6.64,2.096 21.2573,5.736 27.4987,3.14267 v 0 c 2.7506,-1.14267 4.0306,-4.004 6.2426,-4.66 v 0 c 2.4187,-0.716 11.904,-1.17867 13.504,0.76 v 0 l 1.6627,74.052 c 0.071,1.17066 0.8547,1.31733 1.72,1.72266 v 0 c 7.7093,3.6 18.048,2.67334 25.8533,-0.0933 v 0 l 6.868,-91.39333 1.2187,6.228 6.2387,0.65067 6.7293,84.18799 c 0.3013,0.916 0.8293,0.98934 1.6147,1.25334 v 0 c 2.0466,0.68666 10.9173,1.832 13.1693,1.79333 v 0 c 1.6027,-0.028 10.9133,-2.32933 11.7853,-3.18667 v 0 c 1.1227,-1.10133 0.4374,-9.74 0.536,-12.084 v 0 c 1.5054,-35.744 1.9334,-72.02133 2.3427,-107.78799 v 0 c 0.292,-25.53867 -1.02,-43.87467 -4.5467,-68.92267 v 0 c -0.1933,-1.37466 0.3374,-6.81066 -1.024,-7.124 v 0 l -5.3626,-0.26266 4.652,-1.092 0.524,-4.35734 c 2.372,0.75334 9.564,6.596 9.1453,0.91334 v 0 c -0.332,-4.52667 -4.9333,-6.52267 -8.3707,-8.28934 v 0 c -5.924,-3.04 -17.9066,-6.77466 -22.2426,-11.03866 v 0 c -3.184,-3.13067 -4.3734,-8.66534 -10.0507,-9.172 v 0 c -1.4627,-1.81734 4.388,-6.828 4.8253,-6.828 v 0 h 45.6267 v 260.40799 h -37.0173 c -6.3014,0 -15.2094,9.57733 -15.2094,15.77333 v 0 8.89067 c 2.616,0.67333 5.8667,1.096 8.3774,0.0547 v 0 c 1.552,-1.22 0.5373,-6.26934 0.792,-8.38667 v 0 c 0.6093,-5.08533 5.464,-7.29067 10.0666,-7.71867 v 0 c 12.524,-1.168 25.964,-0.65733 39.408,-0.14666 v 0 c 12.14,0.46133 24.2814,0.92266 35.756,0.14666 v 0 c 3.528,-0.49466 10.0534,4.324 10.0534,7.73334 v 0 8.31733 c 2.556,0.55733 6.4386,1.41867 8.6093,-0.28667 v 0 -9.752 c 0,-5.77466 -9.548,-14.62533 -15.2093,-14.62533 v 0 h -36.444 V 179.40601 h 56.244 c -0.24,1.176 -1.772,1.32933 -2.32,2.132 v 0 c -0.928,1.36 -1.0014,4.99866 -1.204,5.244 v 0 c -0.1587,0.192 -3.1067,0.86666 -4.5294,2.068 v 0 c -2.396,2.028 -3.444,5.524 -6.02,7.75066 v 0 c -2.0946,1.80934 -6.9986,4.16 -9.644,5.27334 v 0 c -7.3506,3.09066 -9.8426,3.30533 -16.4213,8.25466 v 0 c -2.5173,1.89467 -5.5747,6.09467 -2.6387,8.71334 v 0 l 8.34,-3.30267 c 0.7774,7.58267 3.0454,15.384 0.888,22.96933 v 0 c -0.5586,1.96133 -1.952,3.24933 -2.3466,4.53467 v 0 c -1.1534,3.77066 4.852,21.984 5.7866,27.54 v 0 c 1.8307,10.876 -3.2653,21.96 -5.768,32.70933 v 0 c -7.6866,33.00933 -12.012,66.67333 -17.548,100.104 v 0 c 0.172,3.31466 7.3867,5.05066 10.1654,5.372 v 0 c 2.3,0.26666 8.9893,-0.252 10.5706,0.90666 v 0 c 1.02,0.74934 -0.124,3.17467 3.8534,4.75334 v 0 c 7.056,2.8 23.7146,3.95866 31.4466,3.616 v 0 c 3.78,-0.168 23.6774,-2.50667 25.224,-5.18934 v 0 c 1.4734,-2.556 -1.0826,-3.42533 4.6,-4.008 v 0 c 5.5294,-0.56533 12.836,0.8 16.8067,-4.43066 v 0 L 315.42801,325.674 c 4.792,-1.17466 10.12,-0.85466 14.8066,-2.12933 v 0 c 5.8627,-1.592 9.5307,-6.408 15.3507,-8.05867 v 0 c 1.0733,2.48 4.5813,4.86934 5.6733,6.784 v 0 c 1.032,1.812 0.9534,6.11734 3.0294,6.74267 v 0 c 1.6293,0.492 11.24,-1.49333 12.7626,-2.512 v 0 c 2.4307,-1.63067 -0.18,-5.08533 0.043,-7.41067 v 0 c 0.096,-1.00133 1.2453,-1.904 1.596,-3.00133 v 0 c 4.6613,-14.628 -3.788,-40.13333 -6.5907,-55.70133 v 0 c -2.2626,-12.57334 -3.5853,-25.59734 -6.1,-38.06933 v 0 c -1.4093,-6.988 -1.1973,-10.63067 -7.6813,-14.69334 v 0 c -10.4467,-6.54533 -16.8493,-6.91733 -25.7453,-16.716 v 0 c -0.7534,-0.83066 -1.9867,-2.34133 -2.832,-2.904 v 0 c -1.4427,-0.96133 -2.3507,-0.772 -3.3267,-1.26266 v 0 c -3.5187,-1.76934 2.6867,-6.48 4.4827,-7.324 v 0 l 22.0853,-0.016 0.071,3.36666 c 10.8213,2.592 11.7253,-15.42133 1.9253,-15.45066 v 0 c -3.5227,-0.012 -0.336,3.62533 -3.9787,4.08533 v 0 c -2.868,0.36 -19.3826,0.26267 -21.192,-0.67333 v 0 c -2.264,-1.17067 -1.864,-2.98134 -5.816,-2.84534 v 0 c -3.8733,0.132 -4.4826,3.12267 -6.912,3.44267 v 0 c -3.2053,0.42 -23.2186,0.40133 -25.1506,-0.59733 v 0 c -1.092,-0.564 -1.8147,-2.104 -3.1947,-2.53867 v 0 c -5.6907,-1.79333 -6.86,2.78667 -10.0453,3.21333 v 0 c -13.2707,-0.192 -26.58,-0.112 -39.8854,-0.0333 v 0 c -20.6133,0.124 -41.22,0.248 -61.6586,-0.64133 v 0 c -2.26,-2.66 -5.432,-3.73867 -8.82,-2.36267 v 0 c -1.492,0.60667 -2.1827,2.66933 -3.8894,2.99467 v 0 c -5.1893,-0.35334 -10.6853,-0.136 -16.1773,0.0813 v 0 c -6.0427,0.23867 -12.08,0.47867 -17.6973,-0.0427 v 0 c -3.9854,-0.36933 -3.676,-3.37066 -8.0027,-3.51866 v 0 c -4.5027,-0.15467 -4.552,3.03066 -6.9053,3.48 v 0 c -1.548,0.29466 -12.736,0.19066 -13.224,-0.52267 v 0 l -0.2494,-3.48267 c -0.3613,-0.0453 -0.7133,-0.068 -1.0573,-0.068 v 0 c -7.1187,0.001 -10.412,9.40667 -4.7027,14.144 m 258.8614,-11.77866 c 5.8853,2.132 6.1693,9.65333 0,10.90133 v 0 l -0.8627,-3.444 h -23.8173 l 0.5706,-4.01867 22.6747,0.003 c 1.864,-0.17067 1.4427,-2.008 1.4387,-3.44133 m -257.92,9.69066 c -2.9814,-3.328 -1.6894,-7.83866 2.2386,-9.676 v 0 l 0.8547,3.42934 h 14.928 l -0.3293,1.72133 1.7506,0.57733 0.8694,-2.30133 h 9.184 v 4.016 h -25.54 c -1.2107,0.37333 -0.368,4.07333 -1.584,4.07333 v 0 c -0.4454,0 -1.1694,-0.49733 -2.372,-1.84 m 71.3946,-8.25466 c 1.2627,-1.304 4.8974,-1.5 5.736,0.27866 v 0 z m 120.516,-0.28134 -5.736,0.56 c 1.068,-2.09333 3.9987,-0.99066 5.736,-0.56 m -169.8706,0 c 1.736,-0.43066 4.6666,-1.53333 5.7346,0.56 v 0 z m 207.748,0 -5.732,0.56 c 1.128,-1.86133 4.088,-1.07333 5.732,-0.56 m -45.3787,2.54 c 0.4373,-0.308 0.96,-0.22 1.4507,-0.28266 v 0 c 3.5906,-0.46134 9.2026,-0.988 7.776,4.04533 v 0 h -59.9734 l -0.8626,0.86 v 264.13733 h 39.3133 c 3.96,0 12.34,7.78133 12.34,11.75733 v 0 8.89067 l -4.02,0.004 c 0.5627,-6.692 -1.112,-13.396 -8.016,-15.79334 v 0 l -82.8973,-0.22 c -7.7,1.71067 -9.812,8.844 -8.9427,16.01334 v 0 h -4.5973 c -0.7307,-6.876 0.9826,-13.916 6.9266,-18.03467 v 0 c 0.9654,-0.66933 5.0774,-2.61733 5.9894,-2.61733 v 0 h 38.4533 l 0.86,-0.86134 V 177.97134 l -0.86,-0.86 h -46.7747 l 0.8987,-4.04 100.688,0.0267 -0.3307,1.72133 1.7587,0.57467 z m -114.7387,0.0347 c 0.876,-0.544 3.1787,-0.42 5.24,-0.29467 v 0 c 1.188,0.072 2.292,0.144 3,0.088 v 0 c 1.4347,0.47067 0.8734,2.7 0.9414,3.93467 v 0 h -47.06 v -4.016 h 35.008 v 2.29867 c 0.2667,0.08 0.4987,0.116 0.7,0.116 v 0 c 1.3774,-0.001 1.404,-1.65067 2.168,-2.12667 m 126.26,-0.288 h 23.532 v 2.3 l 1.9786,0.0307 1.2427,-2.26267 7.888,0.0133 c 1.4333,0.47067 0.872,2.7 0.9413,3.93467 v 0 h -36.1573 z m 12.4467,27.444 c -2.316,-1.236 -4.9693,-2.20533 -6.9813,-3.93867 v 0 c -2.8387,-2.448 -3.8787,-6.59333 -6.8947,-8.596 v 0 c -2.3853,-1.584 -5.54,-0.64533 -3.8747,-4.43733 v 0 c 0.2707,-0.61333 3.5867,-4.16133 3.8694,-4.16133 v 0 h 34.7226 c -0.3453,1.22133 -2.1093,1.83733 -2.568,2.88 v 0 c -0.5386,1.224 -0.14,3.66933 -1.0186,4.43733 v 0 c -0.4694,0.40933 -2.82,0.828 -4.1587,1.86267 v 0 c -1.824,1.40666 -2.3933,3.57733 -3.772,4.83333 v 0 c -0.6107,0.556 -1.6733,0.70533 -2.2227,1.22 v 0 c -1.1666,1.09067 -5.8066,5.90133 -7.0626,5.90133 v 0 c -0.013,0 -0.025,-0.001 -0.039,-0.001 m -177.4467,-21.13333 h 45.6254 c -0.2334,1.17466 -1.7814,1.332 -2.3187,2.13066 v 0 c -0.8373,1.24267 -0.772,3.868 -1.4133,4.74934 v 0 c -0.42,0.57866 -3.4667,1.38666 -4.676,2.49733 v 0 c -2.196,2.01467 -3.3254,5.572 -6.2267,7.82933 v 0 c -1.2267,0.95334 -10.352,5.61867 -11.3773,5.58934 v 0 c -3.1867,-0.0893 -9.9854,-6.82667 -12.82,-8.93734 v 0 c -1.3134,-0.98 -2.8654,-1.19066 -3.8534,-1.884 v 0 c -2.0093,-1.40533 -3.2373,-5.17866 -7.2173,-4.544 v 0 c -1.7467,-1.83466 3.7027,-7.43066 4.2773,-7.43066 m 22.68,24.376 c 0.036,-0.608 8.9427,-4.60934 10.5947,-6.03467 v 0 c 4.1307,-3.568 4.4213,-9.90133 11.4267,-9.12667 v 0 c 4.3986,0.48667 4.964,4.332 7.252,7.11867 v 0 c 5.9426,7.236 21.9533,10.02267 29.6546,15.96 v 0 l 1.0387,3.26533 -38.5107,-19.496 c -3.6,-0.36 -14.8266,7.80267 -19.1506,8.91334 v 0 c -0.288,0.0747 -0.6827,0.13333 -1.064,0.13333 v 0 c -0.656,0 -1.2734,-0.17333 -1.2414,-0.73333 m 167.3214,-11.14934 c 2.692,-3.42133 6.036,-5.38666 10.2093,-2.81733 v 0 c 1.636,1.00667 7,8.14533 4.9587,9.66533 v 0 l -8.4627,-3.908 c -2.184,-0.42666 -6.6667,3.65467 -7.9533,3.85867 v 0 c -0.1467,0.0227 -0.28,0.0347 -0.4014,0.0347 v 0 c -2.76,-0.001 0.82,-5.77734 1.6494,-6.83334 m -202.888,5.68267 c -2.4734,-1.75733 3.0706,-11.39867 9.6346,-9.356 v 0 c 2.0294,0.632 5.6134,4.748 5.832,6.83867 v 0 c 0.3814,3.66133 -2.232,2.36133 -4.7986,1.06 v 0 c -1.3334,-0.676 -2.652,-1.352 -3.5334,-1.33334 v 0 c -1.428,0.032 -5.1906,2.90134 -6.7186,2.90134 v 0 c -0.1667,0 -0.308,-0.0347 -0.416,-0.11067 m 147.8346,6.97867 c 3.736,-2.85067 9.9014,-3.956 13.78,-7.73734 v 0 c 3.1934,-3.11333 4,-8.868 9.6734,-8.86666 v 0 c 5.3333,0.003 5.772,3.88133 8.336,7.04933 v 0 c 3.728,4.60933 10.52,7.55067 15.98,9.54667 v 0 c 0.089,0.79066 0.5826,2.612 -0.7707,2.212 v 0 l -23.5467,-11.99067 c -7.6706,2.99467 -14.4893,7.876 -21.904,11.332 v 0 c -0.8346,0.38933 -1.512,0.56 -1.988,0.56 v 0 c -1.1,0 -1.132,-0.90533 0.44,-2.10533 m -149.1346,10.08933 c -0.8334,-1.41467 -3.0387,-5.63067 -3.2854,-7.04533 v 0 c -0.5,-2.856 -0.684,-9.544 0.392,-12.164 v 0 c 0.2587,-0.62934 0.628,-1.37334 1.2907,-0.70934 v 0 c 0.6453,5.69334 4.9547,9.67067 8.0627,14.05334 v 0 l -5.4814,6.592 c -0.2026,0.04 -0.3546,0.0587 -0.4706,0.0587 v 0 c -0.5414,0 -0.28,-0.39866 -0.508,-0.78533 m 10.4666,-5.86533 4.708,-5.608 4.7427,-8.43867 c 1.5907,0.75867 1.128,10.516 0.836,12.292 v 0 c -0.4467,2.724 -2.808,5.61467 -3.4187,8.35067 v 0 c -0.075,0.0533 -0.16,0.0787 -0.2546,0.0787 v 0 c -1.4707,0 -5.296,-6.03866 -6.6134,-6.67466 m 211.4747,-12.328 c 0.588,0.892 2.5533,2.08266 2.892,2.88133 v 0 c 0.9573,2.25333 -7.112,13.64 -10.6373,13.74267 v 0 c 3.4213,-5.15867 6.5333,-10.43334 7.7453,-16.624 m -22.9507,0 2.0027,6.876 c -5.224,-0.72267 -6.2933,-3.55734 -2.0027,-6.876 m -156.728,9.22533 c -0.6,-0.30667 -1.084,0.3 -0.812,-1.18933 v 0 l 16.3667,-7.40667 30.0213,14.37333 0.1,4.49867 h -2.8773 l -0.02,-3.99467 -6.2907,-0.024 v 4.016 h -24.6774 c -0.348,-7.05733 -6.7533,-7.69466 -11.812,-10.27333 m -39.2613,-5.464 c 0.1013,-0.468 4.9173,-3.008 5.54,-3.064 v 0 c 0.736,-0.0627 1.6853,0.51867 2.6907,1.1 v 0 c 1.0813,0.62533 2.2266,1.25067 3.2426,1.072 v 0 c 0.9134,1.04267 -4.44,7.104 -5.5333,7.98267 v 0 c -0.028,0.005 -0.056,0.007 -0.087,0.007 v 0 c -1.4786,0 -5.312,-5.664 -5.8533,-7.09733 m 146.3853,8.908 22.856,-11.80667 12.108,5.45067 c 0.5387,0.71467 -8.8706,4.86 -9.716,5.48 v 0 c -5.94,4.348 -5.5013,19.30266 -7.5066,26.064 v 0 c -12.0174,-2.404 -14.996,-14.94533 -17.7414,-25.188 m 54.48,-8.08933 c 0.039,-0.75067 0.8534,-0.912 1.336,-1.24134 v 0 c 5.796,-3.956 5.8054,-2.42533 11.8614,0.108 v 0 c 0.096,1.11467 0.083,1.09867 -0.3054,1.084 v 0 c -0.1373,-0.005 -0.3226,-0.0107 -0.564,0.0333 v 0 c -2.08,0.38533 -4.0386,0.56 -5.996,0.55866 v 0 c -2.0693,0 -4.1346,-0.19466 -6.332,-0.54266 m -181.264,10.816 0.4854,-14.25334 c 6.2133,2.56134 7.8733,9.53867 9.1066,15.41867 v 0 c -1.728,1.08667 -2.916,1.51467 -3.9293,1.51467 v 0 c -1.768,0 -3.0067,-1.30134 -5.6627,-2.68 m -37.4453,0.88266 c 1.8613,-5.888 3.0947,-12.044 8.9453,-15.132 v 0 l 0.7667,14.25067 -5.36,2.91467 z m 239.9427,-7.112 1.696,-4.34133 16.1133,7.51067 0.4693,1.024 -1.0653,3.84533 z m -21.8067,-2.85466 c 0.7373,-0.28667 1.3107,0.56666 1.4333,0.56666 v 0 c 3.9934,0 8.0694,0.184 12.052,0 v 0 c 0.045,-0.001 1.36,-1.38133 0.8534,0.276 v 0 c -0.328,1.06934 -4.0427,6.988 -4.952,7.14 v 0 c -1.2734,-0.22666 -10.204,-7.27066 -9.3867,-7.98266 m -168.6947,16.87333 c -0.5093,-0.69333 -3.0493,-2.23333 -4.052,-2.55067 v 0 c -0.488,-2.01066 3.8547,-2.39066 4.052,-3.23733 v 0 l -2.904,-10.51467 16.5387,7.788 c -0.964,5.69734 -2.1027,11.416 -2.7627,17.16533 v 0 c -1.5013,13.07867 -3.0093,28.204 -3.444,41.29867 v 0 c -0.232,7.02533 0.093,14.08 1.7214,20.924 v 0 l -9.1627,1.12667 c -2.3707,-12.39467 -0.5013,-24.84267 0.5467,-37.26 v 0 h -1.7174 l -1.7466,20.34133 1.2053,17.17067 -3.7853,1.472 c -0.6227,2.17733 0.1133,10.10933 2.4253,10.80933 v 0 c 3.2133,0.97467 9.6413,-1.10933 13.1173,-1.46267 v 0 l 0.5654,0.39467 4.9333,34.19467 c -0.8173,0.91466 -8.056,2.44666 -9.8227,2.84133 v 0 c -12.332,2.748 -22.5533,5.18933 -26.14,-10.02533 v 0 c -2.4226,-10.27467 -3.4253,-38.66534 -0.8506,-48.496 v 0 c 3.3746,-12.88934 10.8573,-25.812 14.6346,-38.71867 v 0 c 1.1667,-1.35467 10.2427,-1.19333 12.5254,-2.39467 v 0 c 1.8413,-0.97066 0.9373,-6.01466 0.016,-6.23066 v 0 l -9.9494,1.17333 c 1.0787,-3.11867 5.924,-13.264 4.056,-15.80933 m -60.2293,70.51066 c -0.5387,-1.604 0.9893,-6.88266 1.1013,-9.072 v 0 c 0.744,-14.50666 -1.3693,-34.072 -2.8986,-48.77333 v 0 c -0.74,-7.11866 -1.8134,-14.25866 -3.2534,-21.264 v 0 l 17.032,-7.70133 -3.8373,10.04533 4.984,2.852 c -1.0093,1.55467 -5.572,3.08134 -5.4827,4.91467 v 0 c 0.18,3.62133 5.2414,15.912 6.776,20.18266 v 0 c 5.4334,15.112 15.9307,35.22667 16.9814,50.70134 v 0 c 0.676,9.95333 -0.316,35.472 -4.7747,43.80666 v 0 c -6.3827,11.92667 -23.5573,3.84667 -33.6093,1.33467 v 0 l 5.1946,-34.61733 c 2.8894,0.34933 10.1907,2.64 12.644,2.052 v 0 c 3.1934,-0.76534 3.8494,-8.536 3.156,-11.24667 v 0 l -3.788,-1.47333 c 1.3627,-10.456 1.32,-20.956 -0.035,-31.416 v 0 c -0.2467,-1.89867 -0.2534,-4.608 -1.3734,-6.08667 v 0 c -1.3346,-0.29733 -0.9133,1.19467 -0.8733,2.01867 v 0 c 0.2413,5.12533 1.5253,10.84266 1.7373,16.04933 v 0 c 0.2614,6.436 -0.2506,12.82667 -1.172,19.176 v 0 c -1.596,-0.0107 -8.0613,-0.14933 -8.5093,-1.48267 m 203.7387,-81.58266 8.3893,-3.98933 5.312,2.208 c 0.3027,1.34 -0.1933,0.916 -0.736,1.27333 v 0 c -3.0227,1.98267 -8.512,3.71867 -11.8787,5.59867 v 0 z m 0.5346,27.776 c 14.7814,-2.32667 17.0414,-19.55733 20.6387,-31.29067 v 0 l 4.8853,2.29067 c 0.6894,1.12133 -2.3853,14.088 -2.588,16.93333 v 0 c -0.3053,4.26 -0.3386,11.08133 0.9654,15.08 v 0 c 0.5506,1.68533 2.1786,3.38267 2.1866,4.75467 v 0 c 0.025,4.40533 -4.044,16.452 -5.176,21.73733 v 0 c -0.756,3.54 -1.24,7.11333 -1.9626,10.656 v 0 l -9.7934,0.81867 c 0.1974,-7.26134 3.7814,-15.32534 4.528,-22.144 v 0 c 0.089,-0.82534 0.5907,-2.20934 -0.792,-1.93867 v 0 c -3.376,7.72667 -3.9146,16.40267 -5.52,24.596 v 0 c -8.9986,0.59333 -17.984,1.072 -26.952,-0.188 v 0 c -1.6373,-7.37467 -1.712,-15.45467 -4.3786,-22.58133 v 0 c -0.2974,-0.79734 -0.4774,-1.90667 -1.604,-1.83734 v 0 l 4.296,24.09334 -9.7294,-0.59867 c -0.5093,-3.668 -1.1,-7.364 -1.9253,-10.97867 v 0 c -1.1547,-5.06 -5.2133,-17.09866 -5.0227,-21.396 v 0 c 0.091,-2.03733 2.1627,-4.592 2.6507,-7.144 v 0 c 1.0773,-5.628 0.376,-12.32666 -0.4093,-18.00933 v 0 c -0.352,-2.55066 -2.4267,-9.204 -2.22,-10.99333 v 0 c 0.1773,-1.536 3.68,-2.772 5.176,-3.15067 v 0 c 3.5226,12.496 6.8,30.19333 22.6533,31.568 v 0 c 1.04,0.0907 2.3027,0.13733 3.6227,0.13733 v 0 c 2.2666,0 4.7026,-0.136 6.4706,-0.41466 m 35.5534,30.94533 c 0.2146,-0.75333 5.0453,-4.95733 5.5986,-7.02133 v 0 c 0.932,-3.48534 -1.8,-7.604 -0.892,-10.64 v 0 c 0.6414,-2.14267 5.376,-2.856 5.66,-7.012 v 0 c 0.464,-6.80267 -6.6053,-20.296 -9.168,-26.84267 v 0 l 8.8347,-8.85866 3.1253,1.92533 -2.8253,8.83067 c 0.876,1.056 2.02,-2.25334 2.2053,-2.664 v 0 c 0.4774,-1.05467 1.616,-5.16134 1.8187,-5.36267 v 0 c 0.3133,-0.312 1.204,-0.42533 1.0107,0.72133 v 0 c -0.2774,1.65067 -2.1987,8.868 -1.896,9.60667 v 0 c 0.5266,1.276 0.6013,0.60267 1.008,-0.15067 v 0 c 1.3306,-2.47066 1.6946,-6.22133 2.1666,-9.028 v 0 c 1.0987,-1.18133 2.2934,3.21867 2.2934,3.72534 v 0 8.604 c 0,0.0973 0.772,0.90266 1.1426,0.86133 v 0 l -0.5653,-12.044 7.4987,3.81867 c -1.64,7.92933 -2.1214,15.88133 -1.7574,23.99333 v 0 c 0.1307,2.90133 1.1974,6.17733 1.1867,9.192 v 0 c -0.036,10.04533 -2.1373,18.45733 -1.1867,29.23733 v 0 c 0.98,11.12533 4.2947,22.03333 4.62,33.21067 v 0 c -6.5626,1.19466 -11.4613,7.00266 -17.5093,8.984 v 0 c -3.9773,1.30266 -8.2587,1.11066 -12.3693,1.69066 v 0 z m -18.404,-57.86133 -1.1147,4.80267 c -2.3853,-1.85334 -3.4187,-8.192 1.1147,-4.80267 m 10.4626,2.992 -0.091,-2.77467 c 0.5773,-0.68266 6.904,3.44534 5.7306,5.73334 v 0 z m -68.0986,-2.76267 c 0.9933,0.66934 1.0746,1.69334 0.784,2.78934 v 0 l -5.66,2.932 c -0.1907,-3.19067 2.7066,-4.236 4.876,-5.72134 m 51.4653,1.52267 c 0.232,-0.764 0.8253,-1.11467 1.612,-0.96133 v 0 c 0.029,2.02933 2.172,4.936 2.2853,6.62933 v 0 c 0.26,3.85067 -6.496,15.71066 -11.4586,15.736 v 0 c 0.025,-5.804 -0.76,-11.60133 -2.2854,-17.16933 v 0 l 8.0187,-3.47467 c 0.6733,0.74933 -1.2387,7.71067 1.1453,8.60133 v 0 c 0.136,-2.64133 -0.063,-6.9 0.6827,-9.36133 m -19.9507,23.164 c -0.3266,-0.43334 -0.228,-0.89334 -0.208,-1.38534 v 0 c 0.1494,-3.73333 2.924,-18.21466 4.884,-20.98399 v 0 c 0.4707,-0.664 1.12,-1.18 1.6867,-1.75467 v 0 c 2.9867,4.308 -1.008,7.428 -0.86,12.03867 v 0 c 1.8693,0.31733 1.932,-3.14667 2.2827,-4.316 v 0 c 0.2453,-0.82 -0.3574,-1.01067 1.1546,-0.84534 v 0 c 0.724,5.48934 2.1694,10.97467 1.6467,16.55733 v 0 c -1.3427,0.44667 -5.388,1.312 -8.1053,1.312 v 0 c -1.2054,0 -2.1494,-0.16933 -2.4814,-0.62266 m 76.088,-12.08533 c 0.7574,-4.32534 -3.764,-8.19867 -0.284,-12.02934 v 0 c 2.3027,2.00934 2.8694,5.10267 3.5494,7.912 v 0 c 3.1506,13.02933 4.2386,27.616 6.6746,40.93733 v 0 c 2.4734,13.52 10.7387,40.46134 7.696,52.79334 v 0 c -0.464,1.884 -1.56,5.43466 -3.856,5.60266 v 0 c 1.38,-3.98 1.2307,-7.87466 1.1414,-12.03866 v 0 c -0.7347,-0.97067 -1.0414,0.0693 -1.14,0.852 v 0 c -0.2827,2.24533 -0.6254,11.07466 -2.292,12.05733 v 0 c -1.02,0.60267 -3.9494,0.54267 -4.8934,-0.28667 v 0 c -1.2733,-1.12 -2.0306,-5.73066 -2.584,-7.46266 v 0 c -2.256,-0.50534 -0.7106,3.616 -0.4066,4.71466 v 0 c 0.4586,1.648 2.4973,3.30134 0.6706,4.452 v 0 c -2.216,0.45467 -6.152,-4.272 -6.0306,-5.97733 v 0 c 0.037,-0.53333 2.416,-0.11867 2.376,-4.05333 v 0 c -0.1507,-14.94534 -5.9774,-29.91867 -5.2334,-46.48267 v 0 c 0.4467,-9.95733 0.5934,-15.204 0.032,-25.22267 v 0 c -0.392,-7.028 0.027,-14.10666 1.72,-20.92266 v 0 c 1.8187,0.60667 0.584,5.16533 2.6867,5.164 v 0 c 0.055,0 0.1133,-0.003 0.1733,-0.009 m -239.3942,102.88793 c 2.5147,-18.364 0.612,-37.22134 0.6707,-55.54 v 0 c 0.061,-19.276 -0.1947,-38.58267 0.096,-57.83733 v 0 c 0.8026,-1.68934 1.9213,-2.10667 3.0293,-0.39734 v 0 c 0.4267,23.34 0.4333,46.87467 0.3213,70.28133 v 0 c -0.01,1.63867 -0.6146,3.048 -0.624,4.53867 v 0 c -0.097,16.62533 -0.8213,34.26533 4.04,50.21333 v 0 h -10.3306 c 1.18,-3.70933 2.2653,-7.37066 2.7973,-11.25866 m -57.904,1.208 c 4.024,-28.42267 7.2187,-57.01067 12.244,-85.272 v 0 c 1.136,-6.37867 2.1933,-12.99334 3.656,-19.29067 v 0 c 0.7573,-3.26933 1.3733,-8.12 3.6187,-10.42933 v 0 c 1.1453,8.856 2.684,17.768 3.4466,26.67466 v 0 c 1.2374,14.43067 0.364,21.668 -1.6226,35.656 v 0 c -2.588,18.21734 -5.2787,36.428 -7.5547,54.68534 v 0 z m 96.4333,-68.82 c 1.7507,-14.464 1.2227,-30.584 4.5974,-44.74133 v 0 c 0.208,-0.87067 -0.396,-1.00667 1.1293,-0.856 v 0 c 9.276,37.57466 12.9893,76.42266 18.3773,114.71599 v 0 l -13.78,1.724 z m -22.1026,-44.448 10.376,8.02533 0.172,0.75067 -18.3,49.72266 z m -38.6787,8.28 c 3.684,-2.50933 7.44,-5.04133 10.5627,-8.28 v 0 l 8.3133,58.5 z m 96.9347,0.89467 v -8.604 l 2.292,-0.003 c 0.2666,2.91067 -0.928,5.67333 -0.5734,8.60933 v 0 z m -68.8707,-8.03067 c 2.072,0.80933 3.324,5.91467 6.032,3.444 v 0 c 0.7213,-0.65733 0.896,-3.476 2.012,-3.14933 v 0 l -8.044,55.34399 z m -6.8867,0 v 55.064 l -8.0453,-54.768 1.9893,3.17333 1.6707,1.07334 z m 199.7294,0.57333 c 1.62,0.524 0.9026,1.624 0.56,2.864 v 0 l -0.56,10e-4 z m -1.7507,14.036 c 0.2533,-4.41733 0.9493,-8.312 4.6093,-11.168 v 0 l -4.0186,13.18933 c -0.045,0.008 -0.087,0.0107 -0.1267,0.0107 v 0 c -0.804,0 -0.4987,-1.43467 -0.464,-2.032 m 10.3587,-10.59466 c 2.2266,1.828 3.352,5.716 4.4426,8.46 v 0 c 1.4387,3.62533 4.608,11.84933 4.5307,15.45333 v 0 c -0.071,3.22133 -2.7973,3.66133 -4.9547,5.34 v 0 c -0.7066,-4.10934 -0.5893,-9.056 -1.6493,-13.012 v 0 c -0.2653,-0.98934 0.408,-1.59467 -1.224,-1.324 v 0 l 3.364,25.556 -3.9347,5.41466 -1.148,-40.14933 1.2814,4.73467 1.5906,0.704 z m -157.5667,2.908 c -1.3973,-0.15867 -1.3253,-1.66534 -1.4133,-2.908 v 0 h 24.104 v 1.71866 c -3.3747,-0.16 -6.8987,0.25334 -10.4294,0.668 v 0 c -2.9946,0.34934 -5.9933,0.7 -8.912,0.7 v 0 c -1.1306,0 -2.2506,-0.052 -3.3533,-0.17866 m 152.376,88.59999 c -1.5187,-19.18 0.051,-42.60666 0.6173,-61.944 v 0 c 0.2694,-9.18666 0.54,-18.372 0.5494,-27.56666 v 0 l 1.1453,-0.852 c 0.944,6.74133 0.2853,13.588 0.5533,20.388 v 0 c 0.055,1.35866 0.5734,2.612 0.6214,3.968 v 0 c 0.9466,26.224 0.4173,52.596 0.548,78.89466 v 0 l -1.7174,10e-4 c -0.039,-4.38667 -1.976,-8.56267 -2.3173,-12.88934 m -123.62,-85.73333 0.2467,-2.908 4.0213,-0.001 v 5.16667 l -13.2067,1.14933 v -5.168 l 2.796,0.0853 1.004,2.14267 z m -12.3173,-0.81066 1.6573,-0.94534 0.5747,8.59733 -1.7174,0.007 z m -16.7014,0.20133 15.496,-0.58 -0.3373,5.23066 -13.208,1.056 c -1.9467,-0.02 -1.4387,-4.29466 -1.9507,-5.70666 m 149.2774,16.28266 c -2.268,-5.75066 1.1893,-10.59066 2.52,-16.29066 v 0 l -0.2934,19.504 c -0.8173,-0.40534 -1.9106,-2.41334 -2.2266,-3.21334 m -120.004,-10.30533 0.011,-0.78933 4.4987,-0.524 3.5133,23.436 z m -8.5947,-0.22267 6.86,-0.59866 c 1.4933,5.69466 3.132,11.404 5.1613,16.93466 v 0 c 3.3707,9.188 5.7094,11.584 5.7707,22.33334 v 0 c 0.013,2.50533 -0.6173,4.78266 -0.6187,6.88533 v 0 c -0.021,46.04267 -1.692,91.97733 -1.976,137.98133 v 0 l -9.4746,2.856 -5.7454,-147.41333 -1.716,0.004 5.4387,147.42133 -11.788,-2.08667 -6.868,-83.07733 c -0.028,-1.00933 9.7387,-0.69066 9.5027,-4.01333 v 0 l -14.0814,-95.52133 c 1.6734,0.0333 3.5587,-0.18534 5.4774,-0.404 v 0 c 2.7866,-0.316 5.6426,-0.63334 8.0173,-0.18267 v 0 c 1.668,0.31867 1.3693,2.236 2.8173,2.28933 v 0 c 0.052,0.001 0.104,0.003 0.1547,0.003 v 0 c 1.952,0 3.516,-1.348 3.068,-3.41067 m -46.4347,8.08267 9.68,-1.21733 c -0.01,1.11733 0.3707,2.95066 -0.936,3.36 v 0 l -9.9653,1.22 z m 176.4067,9.672 c 1.072,5.356 -0.6733,10.676 -0.2907,16.06267 v 0 c -6.2413,-1.884 0.192,-11.516 0.2907,-16.06267 m -6.6213,29.52 2.3186,-13.452 c 0.34,-0.38933 4.5894,3.42667 4.5894,3.72667 v 0 35.27466 z m -149.688,45.25733 c -1.676,-7.35866 -1.8987,-14.90266 -2.4147,-22.20133 v 0 c -0.3867,-5.46933 -2.956,-12.09733 -3.3987,-17.87733 v 0 c -0.3066,-3.99734 0.1987,-8.292 0,-12.32134 v 0 l 7.236,46.26934 -0.3613,8.216 c -0.02,10e-4 -0.04,10e-4 -0.06,10e-4 v 0 c -0.864,0 -0.852,-1.45467 -0.9973,-2.08667 m 73.6413,81.236 -0.2373,-1.33867 c 6.4573,-41.316 12.2933,-82.81866 23.5066,-123.12399 v 0 c 16.816,2.54666 34.2347,2.51466 51.0547,0.012 v 0 c 8.8653,31.10666 14.4987,63.032 19.4387,95.01466 v 0 c 1.5333,9.924 3.212,19.96667 4.0146,29.924 v 0 c -6.0106,3.25733 -12.8666,2.132 -19.416,2.96267 v 0 l -8.6093,-82.02933 -1.7173,0.001 8.3533,86.648 c -17.8293,5.496 -37.5293,5.25333 -55.368,-0.0867 v 0 l 9.1427,-86.236 -1.444,-0.33066 -9.4747,82.60666 c -6.1773,-2.39867 -13.8307,0.45867 -19.244,-4.024 m -91.8173,-100.92666 -1.4214,-7.47067 13.7534,-1.69867 c -0.3,1.68134 2.0866,6.79067 0.6226,7.748 v 0 l -11.8506,1.94934 z m -58.496,-1.19334 c -3.164,-0.764 0.112,-5.716 -0.2947,-7.976 v 0 l 13.7547,1.69867 c -0.46,1.60267 -0.6507,7.51867 -2.088,7.98933 v 0 c -3.6014,-0.75733 -7.8734,-0.86666 -11.372,-1.712 m 276.3093,20.68134 11.4773,-1.724 0.012,4.30266 -10.884,1.97334 z m -216.236,23.928 c 0.2267,-0.88134 0.504,-1.63067 1.4293,-2.01067 v 0 c 3.4654,-1.42267 10.5947,-1.776 14.5094,-2.98933 v 0 l -6.2867,73.04666 -12.0747,2.092 z m -13.3667,67.49599 -1.1066,-70.20133 c 4.416,1.49867 8.5293,2.42534 13.1933,1.14667 v 0 l -3.1427,71.68533 z"
     style="display:inline;fill:url(#linearGradient114);stroke:none;stroke-width:1.33333" />
  <metadata
     id="metadata183">
    <rdf:RDF>
      <cc:Work
         rdf:about="">
        <dc:title>Anqio Visual Brand Identity</dc:title>
        <dc:date>2026</dc:date>
        <dc:rights>
          <cc:Agent>
            <dc:title>Anaqio.com</dc:title>
          </cc:Agent>
        </dc:rights>
        <dc:publisher>
          <cc:Agent>
            <dc:title>anaqio.com</dc:title>
          </cc:Agent>
        </dc:publisher>
        <cc:license
           rdf:resource="https://anaqio.co" />
      </cc:Work>
    </rdf:RDF>
  </metadata>
</svg>
